inDegrees=no
DataType=double
version=3
OpenSimVersion=4.4-2022-10-11-798caa840
endheader
time	elv_angle	shoulder_elv	shoulder_rot	elbow_flexion	pro_sup	deviation	flexion
2.4020851434	1.7479151487	0.5142494440	1.6661467552	1.3156894445	0.3674045503	0.1311342120	0.2448617518
2.4062554301	1.7466837168	0.5181117654	1.6698136330	1.3153728247	0.3663898408	0.1308354288	0.2433463484
2.4104257168	1.7458112240	0.5207238197	1.6726070642	1.3148081303	0.3649332523	0.1294784546	0.2406473309
2.4145960035	1.7460880280	0.5196097493	1.6716294289	1.3150476217	0.3652083278	0.1301763654	0.2411334217
2.4187662902	1.7465488911	0.5178300738	1.6699483395	1.3151590824	0.3663404882	0.1296111941	0.2409182489
2.4229365769	1.7468603849	0.5158078074	1.6683162451	1.3161263466	0.3670954704	0.1329980344	0.2420474738
2.4271068636	1.7468385696	0.5159931183	1.6682846546	1.3160369396	0.3673850298	0.1322570592	0.2422512770
2.4312771503	1.7468065023	0.5164623260	1.6685558558	1.3157885075	0.3674251735	0.1313807517	0.2422563136
2.4354474370	1.7472397089	0.5143863559	1.6668306589	1.3163969517	0.3677127361	0.1334142536	0.2429565191
2.4396177237	1.7487179041	0.5091656446	1.6613693237	1.3180974722	0.3734908998	0.1367043555	0.2460937202
2.4437880104	1.7482742071	0.5122236609	1.6639041901	1.3170115948	0.3729513586	0.1333778054	0.2451371551
2.4479582971	1.7480891943	0.5133059621	1.6647126675	1.3167401552	0.3729307353	0.1325551271	0.2450399101
2.4521285838	1.7476917505	0.5133926272	1.6651051044	1.3171911240	0.3722332120	0.1344548017	0.2448840290
2.4562988705	1.7455061674	0.5211654902	1.6726052761	1.3153717518	0.3683522046	0.1298841089	0.2404804379
2.4604691573	1.7465592623	0.5161287785	1.6682652235	1.3167330027	0.3694499731	0.1340768337	0.2423087955
2.4646394440	1.7466974258	0.5162768364	1.6683274508	1.3164670467	0.3693293631	0.1332193315	0.2423318774
2.4688097307	1.7462971210	0.5184388161	1.6701791286	1.3158366680	0.3689039052	0.1313057393	0.2414914072
2.4729800174	1.7468402386	0.5169205666	1.6686730385	1.3158380985	0.3696356714	0.1308533698	0.2419118136
2.4771503041	1.7474893332	0.5150517821	1.6668390036	1.3161259890	0.3706412613	0.1313290745	0.2429565042
2.4813205908	1.7473076582	0.5155949593	1.6672214270	1.3160588741	0.3706778884	0.1310267895	0.2428884357
2.4854908775	1.7474783659	0.5145607591	1.6663286686	1.3165668249	0.3711878657	0.1326528788	0.2436369061
2.4896611642	1.7472869158	0.5154442787	1.6670216322	1.3163610697	0.3711178005	0.1319512278	0.2434828281
2.4938314509	1.7473801374	0.5163460374	1.6676353216	1.3156164885	0.3709670901	0.1292352825	0.2430412918
2.4980017376	1.7474673986	0.5164188147	1.6676522493	1.3155491352	0.3711051345	0.1292155832	0.2431561798
2.5021720243	1.7456561327	0.5212442279	1.6726416349	1.3153141737	0.3687098324	0.1297416240	0.2404274046
2.5063423110	1.7461115122	0.5197574496	1.6712309122	1.3154853582	0.3693526983	0.1299419850	0.2409875244
2.5105125977	1.7460983992	0.5197718740	1.6712137461	1.3154687881	0.3693487048	0.1299384087	0.2409823835
2.5146828844	1.7465420961	0.5174611807	1.6694728136	1.3157566786	0.3690004051	0.1307580620	0.2406542003
2.5188531712	1.7466303110	0.5175488591	1.6696170568	1.3154078722	0.3688920438	0.1295565367	0.2397191972
2.5230234579	1.7466672659	0.5169459581	1.6691161394	1.3156298399	0.3689241409	0.1302020252	0.2400827706
2.5271937446	1.7469896078	0.5159070492	1.6682019234	1.3158619404	0.3692083657	0.1309518963	0.2406368554
2.5313640313	1.7468525171	0.5161955357	1.6683495045	1.3159078360	0.3693898022	0.1307966560	0.2408151180
2.5355343180	1.7469018698	0.5166069865	1.6686304808	1.3157575130	0.3694365919	0.1305411011	0.2408959419
2.5397046047	1.7473485470	0.5150609016	1.6670088768	1.3159736395	0.3705050647	0.1306554079	0.2417078316
2.5438748914	1.7477302551	0.5137737989	1.6657655239	1.3163471222	0.3713128567	0.1315757483	0.2425424010
2.5480451781	1.7473263741	0.5153398514	1.6671435833	1.3160721064	0.3710159659	0.1308167577	0.2420447171
2.5522154648	1.7473179102	0.5155304074	1.6672226191	1.3159489632	0.3711668849	0.1301475018	0.2420306653
2.5563857515	1.7474327087	0.5157321692	1.6673166752	1.3157862425	0.3713075519	0.1298087388	0.2421595603
2.5605560382	1.7464427948	0.5187068582	1.6702257395	1.3155393600	0.3703346848	0.1296757162	0.2408079356
2.5647263249	1.7464390993	0.5186586380	1.6701471806	1.3156334162	0.3703967333	0.1300191730	0.2409508973
2.5688966116	1.7463563681	0.5177390575	1.6695891619	1.3161643744	0.3701970577	0.1316779256	0.2411860824
2.5730668983	1.7464352846	0.5178036690	1.6695405245	1.3161123991	0.3702980280	0.1316365451	0.2413953543
2.5772371851	1.7463743687	0.5180608630	1.6696993113	1.3160374165	0.3703056574	0.1312919110	0.2413839996
2.5814074718	1.7466347218	0.5183405876	1.6697781086	1.3154368401	0.3703098893	0.1292487383	0.2412119061
2.5855777585	1.7470151186	0.5168853402	1.6684979200	1.3158012629	0.3707068563	0.1302782297	0.2418706417
2.5897480452	1.7468920946	0.5169718862	1.6685005426	1.3158551455	0.3707780242	0.1303093284	0.2418747097
2.5939183319	1.7471209764	0.5159845352	1.6675984859	1.3162685633	0.3713766336	0.1316084862	0.2426281273
2.5980886186	1.7467857599	0.5172627568	1.6687427759	1.3160082102	0.3710251749	0.1309072375	0.2421077043
